<?xml version="1.0" encoding="UTF-8"?>
<svg id="Layer_2" data-name="Layer 2" xmlns="http://www.w3.org/2000/svg" viewBox="0 0 61.8 50.26">
  <defs>
    <style>
      .cls-1 {
        stroke: #ba2031;
      }

      .cls-1, .cls-2 {
        fill: none;
        stroke-linecap: round;
        stroke-linejoin: round;
        stroke-width: 2px;
      }

      .cls-2 {
        stroke: #838271;
      }
    </style>
  </defs>
  <g id="Layer_2-2" data-name="Layer 2">
    <g>
      <g>
        <path class="cls-1" d="M2.04,14.16C9.07,6.1,19.4,1,30.9,1s20.88,4.64,27.87,12.07"/>
        <polyline class="cls-1" points="58.55 6.96 58.77 13.17 52.57 12.94"/>
      </g>
      <path class="cls-2" d="M60.8,39.35c0-16.53-13.39-29.93-29.9-29.93S1,22.82,1,39.35"/>
      <g>
        <line class="cls-1" x1="42.89" y1="18.52" x2="35.86" y2="30.77"/>
        <line class="cls-1" x1="49.52" y1="28.6" x2="51.67" y2="27.36"/>
        <line class="cls-1" x1="52.41" y1="39.43" x2="54.88" y2="39.43"/>
        <line class="cls-1" x1="9.39" y1="39.43" x2="6.92" y2="39.43"/>
        <line class="cls-1" x1="12.28" y1="28.6" x2="10.13" y2="27.36"/>
        <line class="cls-1" x1="20.15" y1="20.67" x2="18.91" y2="18.52"/>
        <line class="cls-1" x1="30.9" y1="17.77" x2="30.9" y2="15.28"/>
      </g>
      <path class="cls-1" d="M6.84,39.35c0-13.3,10.77-24.09,24.06-24.09,2.71,0,5.31.45,7.74,1.27"/>
      <path class="cls-1" d="M46.73,21.22c5.04,4.42,8.23,10.91,8.23,18.14"/>
      <g>
        <circle class="cls-1" cx="30.9" cy="39.35" r="9.91" transform="translate(-12.85 63.62) rotate(-80.87)"/>
        <g>
          <line class="cls-1" x1="28.22" y1="35.92" x2="28.22" y2="38.11"/>
          <line class="cls-1" x1="33.58" y1="35.92" x2="33.58" y2="38.11"/>
        </g>
        <path class="cls-1" d="M26.33,41.73c.86,1.65,2.58,2.78,4.57,2.78s3.71-1.13,4.57-2.78"/>
      </g>
    </g>
  </g>
</svg>